<?xml version="1.0" encoding="UTF-8"?>
<!DOCTYPE svg PUBLIC "-//W3C//DTD SVG 1.0//EN" "http://www.w3.org/TR/2001/REC-SVG-20010904/DTD/svg10.dtd">
<!-- Creator: CorelDRAW 2020 (64-Bit) -->
<svg xmlns="http://www.w3.org/2000/svg" xml:space="preserve" width="2244px" height="591px" version="1.0" style="shape-rendering:geometricPrecision; text-rendering:geometricPrecision; image-rendering:optimizeQuality; fill-rule:evenodd; clip-rule:evenodd"
viewBox="0 0 2244 590.53"
 xmlns:xlink="http://www.w3.org/1999/xlink"
 xmlns:xodm="http://www.corel.com/coreldraw/odm/2003">
 <defs>
  <style type="text/css">
   <![CDATA[
    .fil4 {fill:#2A303E}
    .fil3 {fill:#2B313F}
    .fil0 {fill:#2C3341}
    .fil5 {fill:#2F3443}
    .fil6 {fill:#353542}
    .fil7 {fill:#6A6F76}
    .fil2 {fill:#EAEAEA}
    .fil1 {fill:#FA6A3D}
    .fil9 {fill:#FE6C3F}
    .fil8 {fill:white}
   ]]>
  </style>
 </defs>
 <g id="Слой_x0020_1">
  <metadata id="CorelCorpID_0Corel-Layer"/>
  <path class="fil0" d="M458.18 486.46l-28.02 0.08 -0.25 -19.85 -51.55 -0.02c-0.89,-5.1 -0.51,-10.47 -0.53,-15.62 0,-7.5 0.76,-7.62 4.06,-12.86 4.24,-6.75 7.63,-12.65 12.51,-20.27 4.49,-6.96 8.55,-13.81 12.56,-20.24 15.91,-25.45 3.66,-20.07 51.15,-20.05l0.24 64.22 12.84 0.21 0.28 24.12 -12.6 0.31 -0.69 19.97 0 0zm-178.55 -92.03c5.02,-13.77 56.75,-32.16 81,-2.6 13.57,16.56 4.63,36.89 -7.87,50.04 -7.9,8.32 -17.43,13.95 -23.37,19.85l38.35 0.32 0.18 24.45 -85 0.09 -0.47 -21.66c14.68,-12.7 34.94,-23.98 48.51,-37.9 18.26,-18.72 0.16,-33.01 -23.14,-23.12 -5.64,2.41 -9.96,6.86 -13.44,8.13 -5.94,-4.93 -9.73,-11.82 -14.75,-17.6l0 0zm10.43 -35.32l-31.21 0.14c0.12,-4.91 35.58,-96.62 40.23,-108.98l35.44 -0.03c4.65,12.65 40.39,104.1 40.24,109.06l-31.04 -0.11 -5.41 -15.49 -43.08 0.02 -5.17 15.39zm121.64 -0.15l-28.33 0.36 0.07 -109.16 29.24 0.15 32.36 44.19c3.08,4.23 7.93,11.67 11.26,14.62l0.17 -58.67 28.31 -0.13 -0.1 108.56 -26.98 0.36c-8.11,-9.6 -40.5,-58.35 -46.06,-61.7l0.07 61.42 -0.01 0zm-175.67 -55.2c20.86,3.99 26.15,39.46 4.24,51.42 -10.31,5.63 -25.57,4.14 -38.35,4.12 -14.38,0 -28.78,0.04 -43.18,0.04l-0.01 -109.12c15.8,0.07 66.55,-2.12 77.76,3.11 8.87,4.13 15.68,12.79 15.73,24.78 0.05,8.89 -2.78,15.23 -9.08,20.34 -2.64,2.16 -2.41,0.84 -6.39,4.55 -0.21,0.2 -0.51,0.5 -0.72,0.76l0 0zm322.56 -2.77l33.15 43.62c2.4,3.27 3.05,4.4 5.54,7.37 2.16,2.59 3.89,4.57 4.86,7.08l-25.44 0.15c-9.75,0 -8.28,0.42 -12.51,-5.97l-24.27 -34.24c-11.73,6.97 -5.83,22.21 -7.52,40.01l-27.83 0.15c-1.1,-33.86 -0.38,-73.89 -0.31,-108.75l28.35 -0.09 1.37 42.22c0.15,-0.16 0.46,-0.43 0.63,-0.61 0.18,-0.18 0.39,-0.41 0.57,-0.61l30.58 -40.68 34.12 -0.4c-2.08,4.55 -35.7,42.8 -41.29,50.75l0 0zm-254.48 -125.25c24.97,7.31 24.8,40.43 5.24,51.79 -9.64,5.61 -26.37,4.01 -38.84,4.01 -13.21,0 -30,0.89 -42.76,-0.2l-0.02 -108.47c14.91,-0.74 68.22,-2.05 78.47,3.18 14.77,7.54 20.03,27.26 9.9,40.67 -4.09,5.44 -7.11,5.28 -11.99,9.02l0 0zm26.39 -53.07l89.07 0.07 -0.02 24.26 -30.06 0.41 -0.35 84.06 -28.25 0.12 -0.03 -84.13 -30.32 -0.1 -0.04 -24.69 0 0zm175.62 70.84l23.75 10.73c-23.19,49.94 -105.85,33.61 -106.26,-26.52 -0.41,-61.96 84.3,-76.93 106.02,-27.84 -1.97,1.97 -19.47,10.01 -23.51,11.15 -7.12,-9.78 -15.83,-19.9 -33.41,-13.74 -27.08,9.5 -27.26,49.6 -0.78,59.62 6.67,2.51 14.83,2.61 21.06,-0.54 7.08,-3.56 8.71,-6.42 13.13,-12.86l0 0zm-266.3 351.71l278.18 0.28c13.11,-23.7 138.07,-237.12 138.16,-240.55 0.08,-3.24 -93.77,-164.2 -103.41,-180.83 -11.12,-19.14 -22.45,-39.97 -34.95,-60.26l-277.5 0.02 -138.46 240.29c-0.34,3.79 125.07,216.51 137.98,241.05l0 0z"/>
  <path class="fil1" d="M239.82 545.22c-12.91,-24.54 -138.32,-237.26 -137.97,-241.05l138.45 -240.29 277.5 -0.02c12.5,20.29 23.83,41.12 34.95,60.26 9.65,16.63 103.49,177.59 103.41,180.83 -0.09,3.43 -125.05,216.85 -138.16,240.55l-278.18 -0.28 0 0zm-11.07 -501.15c-6.34,8.72 -12.66,21.77 -18.88,32.24 -14.41,24.29 -131.06,226.05 -130.97,228.54 0.12,3.11 66.27,115.62 74.81,130.85l56.38 97.73c5.73,9.86 13.26,22.17 18.4,32.11l301.37 -0.34c5.8,-11.12 11.67,-20.11 18.8,-32.86 6.48,-11.56 11.99,-20.89 18.93,-32.67 12.68,-21.47 25.53,-43.61 37.42,-65l56.46 -97.71c3.44,-5.86 17.89,-29.86 17.61,-32.87 -0.26,-2.99 -66.32,-115.68 -74.64,-130.26 -12.93,-22.59 -25.12,-43.61 -37.47,-64.88 -12.74,-21.94 -24.68,-44.27 -37.56,-65l-300.65 0.12 -0.01 0z"/>
  <path class="fil2" d="M186.62 335.36l0.21 -19.4c7.93,-0.24 16.13,-0.08 24.06,-0.1 8,0 14.25,1.13 14.8,9.06 0.59,8.56 -5.83,10.54 -13.81,10.52 -8.33,-0.02 -16.98,0.18 -25.26,-0.08zm0.28 -61.29c11.69,-0.03 37.17,-4.48 36.79,9.01 -0.21,8.24 -5.98,8.9 -13.79,8.87 -7.57,-0.03 -15.4,-0.18 -23.13,0.08l0.13 -17.96 0 0zm49.13 29.69c0.21,-0.27 0.51,-0.56 0.72,-0.76 3.98,-3.71 3.75,-2.39 6.39,-4.55 6.3,-5.12 9.13,-11.45 9.08,-20.34 -0.05,-11.99 -6.86,-20.65 -15.73,-24.79 -11.21,-5.22 -61.96,-3.03 -77.76,-3.1l0.01 109.12c14.4,0 28.8,-0.04 43.18,-0.04 12.78,0.02 28.04,1.51 38.35,-4.12 21.91,-11.96 16.62,-47.43 -4.24,-51.42l0 0z"/>
  <path class="fil2" d="M255.64 188.71c7.68,-0.69 16.95,-0.25 24.84,-0.28 7.99,-0.02 14.43,1.25 14.21,10.19 -0.2,8.31 -7.45,9.43 -15.22,9.38 -7.04,-0.01 -17.2,0.65 -23.77,-0.39l-0.06 -18.9zm30.87 -25.17c-2.57,1.57 -3.71,1.32 -7.04,1.35l-23.96 -0.13c-0.25,-5.97 -1.03,-12.88 0.39,-18.57 4.16,-0.02 28.76,-1.07 30.25,1.29 8.54,1.56 8.79,13.95 0.36,16.06zm17.6 12.2c4.88,-3.74 7.9,-3.57 11.99,-9.02 10.12,-13.41 4.86,-33.13 -9.9,-40.67 -10.26,-5.23 -63.56,-3.92 -78.47,-3.18l0.02 108.47c12.76,1.09 29.55,0.2 42.76,0.2 12.47,0 29.19,1.6 38.84,-4.01 19.56,-11.36 19.73,-44.48 -5.24,-51.79l0 0z"/>
  <path class="fil2" d="M411.64 297.54c5.56,3.35 37.95,52.1 46.06,61.7l26.98 -0.36 0.1 -108.56 -28.31 0.14 -0.17 58.66c-3.33,-2.95 -8.18,-10.39 -11.26,-14.61l-32.36 -44.2 -29.24 -0.15 -0.07 109.16 28.33 -0.36 -0.06 -61.42 0 0z"/>
  <path class="fil2" d="M316.84 278.59l13.51 40.42 -27.35 -0.23 13.84 -40.19zm-21.61 65.13l43.08 -0.02 5.41 15.49 31.04 0.11c0.15,-4.96 -35.59,-96.41 -40.24,-109.06l-35.44 0.03c-4.65,12.36 -40.11,104.07 -40.23,108.98l31.21 -0.14 5.17 -15.39z"/>
  <path class="fil2" d="M558.59 300.99c5.59,-7.95 39.22,-46.2 41.29,-50.75l-34.12 0.4 -30.58 40.68c-0.18,0.2 -0.39,0.43 -0.57,0.61 -0.17,0.18 -0.48,0.45 -0.63,0.61l-1.37 -42.22 -28.35 0.09c-0.07,34.86 -0.79,74.89 0.31,108.75l27.83 -0.15c1.7,-17.8 -4.21,-33.04 7.52,-40.01l24.27 34.24c4.23,6.4 2.76,5.97 12.51,5.97l25.44 -0.15c-0.97,-2.51 -2.7,-4.49 -4.86,-7.08 -2.49,-2.97 -3.14,-4.1 -5.54,-7.37l-33.15 -43.62 0 0z"/>
  <path class="fil1" d="M406.08 441.8c0.6,-3.53 19.83,-34.78 23.83,-37.64l-0.41 37.85 -23.42 -0.21zm52.79 24.69l12.6 -0.32 -0.28 -24.11 -12.84 -0.21 -0.24 -64.22c-47.49,-0.02 -35.24,-5.4 -51.15,20.05 -4.01,6.43 -8.07,13.28 -12.56,20.24 -4.88,7.62 -8.27,13.52 -12.51,20.27 -3.3,5.24 -4.06,5.36 -4.06,12.86 0.01,5.15 -0.36,10.52 0.53,15.62l51.55 0.02 0.25 19.85 28.02 -0.08 0.69 -19.97 0 0z"/>
  <path class="fil2" d="M506.12 193.51c-4.42,6.44 -6.05,9.3 -13.12,12.86 -6.24,3.15 -14.4,3.05 -21.06,0.54 -26.49,-10.02 -26.31,-50.12 0.77,-59.62 17.58,-6.16 26.29,3.96 33.41,13.74 4.05,-1.14 21.54,-9.18 23.51,-11.15 -21.72,-49.09 -106.43,-34.12 -106.02,27.84 0.42,60.13 83.08,76.46 106.26,26.52l-23.75 -10.73 0 0z"/>
  <path class="fil1" d="M279.63 394.43c5.02,5.78 8.81,12.67 14.75,17.6 3.48,-1.27 7.8,-5.72 13.44,-8.13 23.3,-9.89 41.4,4.4 23.14,23.12 -13.57,13.92 -33.83,25.2 -48.51,37.9l0.47 21.66 85 -0.09 -0.18 -24.45 -38.35 -0.32c5.94,-5.9 15.47,-11.53 23.37,-19.85 12.5,-13.15 21.44,-33.48 7.87,-50.04 -24.25,-29.56 -75.98,-11.17 -81,2.6l0 0z"/>
  <polygon class="fil2" points="330.55,147.36 360.86,147.46 360.89,231.59 389.14,231.47 389.49,147.41 419.55,147 419.57,122.74 330.5,122.67 "/>
  <path class="fil3" d="M255.7 207.61c6.57,1.04 16.73,0.38 23.77,0.39 7.77,0.05 15.02,-1.07 15.22,-9.38 0.22,-8.94 -6.22,-10.21 -14.21,-10.19 -7.89,0.03 -17.16,-0.41 -24.84,0.28l0.06 18.9z"/>
  <path class="fil3" d="M186.62 335.36c8.28,0.26 16.93,0.06 25.26,0.08 7.98,0.02 14.4,-1.96 13.81,-10.52 -0.55,-7.93 -6.8,-9.06 -14.8,-9.06 -7.93,0.02 -16.13,-0.14 -24.06,0.1l-0.21 19.4z"/>
  <path class="fil4" d="M186.76 292.03c7.74,-0.26 15.57,-0.11 23.14,-0.08 7.8,0.03 13.58,-0.63 13.79,-8.87 0.38,-13.49 -25.1,-9.04 -36.79,-9.01l-0.14 17.96 0 0z"/>
  <path class="fil3" d="M286.51 163.54c8.43,-2.11 8.18,-14.5 -0.36,-16.06 -8.46,0.19 -21.76,-0.1 -30.45,-0.63l0.22 17.7c10.16,-0.84 19.87,0.14 30.59,-1.01l0 0z"/>
  <polygon class="fil5" points="303,318.78 330.35,319.01 316.84,278.59 "/>
  <path class="fil6" d="M406.08 441.8l23.42 0.21 0.41 -37.85c-4,2.86 -23.24,34.11 -23.83,37.64z"/>
  <path class="fil7" d="M286.51 163.54c-10.72,1.15 -20.43,0.16 -30.59,1.01l-0.22 -17.7c8.7,0.53 21.99,0.82 30.45,0.63 -1.49,-2.36 -26.09,-1.31 -30.25,-1.29 -1.42,5.69 -0.64,12.6 -0.39,18.57l23.96 0.13c3.33,-0.03 4.47,0.22 7.04,-1.35l0 0z"/>
  <g id="_2869784656512">
   <path class="fil8" d="M1516.61 445.02l40.84 0 2.09 -188.1 44.19 162.24c2.39,9.51 5.67,16.32 5.88,25.86l47.63 0 0 -283.51c-51.57,0 -40.83,-12.86 -40.83,74.84 0,27.98 0,55.95 0,83.92l-1.47 -3.07c-0.44,-1.2 -1.43,-3.97 -1.75,-5.05l-30.81 -114.34c-11.9,-45.34 0.39,-36.3 -65.77,-36.3l0 283.51 0 0z"/>
   <path class="fil8" d="M795.37 404.2l-24.96 0 0 -83.93c48.76,0 45.37,-2.02 45.37,63.51 0,12.35 -8.06,20.42 -20.41,20.42l0 0zm-9.07 -127.03l-15.89 0 0 -72.56c43.12,0 40.84,0.97 40.84,47.63 0,17 -7.95,24.93 -24.95,24.93l0 0zm-63.52 -108.86l0 276.71 81.66 0c64.09,0 56.7,-64.32 56.7,-99.8 0,-11.64 -3.68,-25 -8.61,-32.21 -8.1,-11.87 -15.87,-13.11 -20.86,-19.96 33.51,-8.95 38.69,-100.66 -0.04,-122.44 -21.39,-12.02 -74.34,-9.1 -102.03,-9.1 -5.23,0 -6.82,1.59 -6.82,6.8z"/>
   <path class="fil8" d="M1260.32 404.2l-27.21 0 0 -83.93c48.6,0 47.63,-2.86 47.63,58.97 0,14.15 -6.5,24.96 -20.42,24.96l0 0zm-6.79 -127.03l-20.42 0 0 -72.56c41.08,0 43.09,-1.52 43.09,45.35 0,15.67 -7.27,27.21 -22.67,27.21l0 0zm-65.79 -108.86l0 276.71 83.93 0c14.68,0 31.68,-9.4 39.18,-17.52 22.15,-24 18.44,-92.19 7.01,-112.59 -6.33,-11.32 -15.68,-14.25 -21.24,-21.86 28.01,-7.47 24.94,-53.1 24.94,-74.84 0,-67.48 -76.77,-56.7 -127.01,-56.7 -5.23,0 -6.81,1.59 -6.81,6.8z"/>
   <path class="fil8" d="M1688.99 445.02l45.36 0 0 -81.66c0,-8.95 8.29,-23.3 13.6,-27.21l40.84 108.87 47.63 0c-2.56,-5.33 -4.54,-12.51 -6.78,-18.18 -2.42,-6.08 -4.57,-11.31 -7.16,-17.79l-44.63 -112.12c-4.8,-12.4 4.62,-22.99 10.18,-34.11l42.45 -86.99c9.12,-17.21 9.85,-14.32 -32.62,-14.32 -10.42,0 -26.36,43.62 -33.27,57.46l-30.24 60.48 0.01 -93c0.28,-29.71 7.39,-24.94 -45.37,-24.94l0 283.5 0 0.01z"/>
   <path class="fil8" d="M1416.82 225.01c8.64,37.09 12.32,94.55 20.42,129.28l-40.84 0 20.42 -129.28 0 0zm-77.12 220.01l43.09 0c1.37,-16.35 6.82,-32.49 6.82,-49.91l54.42 0c0,15.85 5.54,34.62 6.81,49.91l45.37 0c0,-13.48 -2.95,-23.49 -4.66,-36.17 -1.59,-11.79 -3.6,-22.45 -5.71,-35.11l-31.65 -197.43c-2.72,-19.14 6.35,-14.8 -62.33,-14.8 -9.3,0 -8.89,14.88 -10.95,29.87 -1.93,13.94 -3.54,23.27 -5.88,37.21l-35.33 216.43 0 0z"/>
   <path class="fil9" d="M2088.17 259.03l0 93 -40.83 0c3.45,-6.51 6.46,-14.48 9.7,-22.07 4.37,-10.15 25.26,-64.18 31.13,-70.93l0 0zm-83.92 102.07l0 34.01 83.92 0 0 49.91 47.63 0 0 -49.91 20.41 0 0 -40.82 -20.41 0 0 -185.98c0,-11 -16.5,-6.8 -45.37,-6.8 -7.91,0 -8.61,9.12 -13.54,20.47 -11.41,26.2 -72.64,164.59 -72.64,179.12z"/>
   <path class="fil8" d="M1028.98 227.28l0 151.96c0,42.7 23.22,70.31 65.77,70.31 73.48,0 68.05,-59.39 68.05,-104.33 0,-10.27 -11.64,-6.79 -36.3,-6.79 -21.77,0 15.51,68.03 -31.75,68.03 -14.38,0 -20.41,-12.97 -20.41,-27.22l0 -147.42c0,-33.12 15.99,-29.49 29.49,-29.49 19.39,0 15.88,41.51 15.88,56.7l43.09 0c0,-45.17 3.4,-99.79 -68.04,-99.79 -41.99,0 -65.78,26.1 -65.78,68.04l0 0z"/>
   <path class="fil9" d="M1854.56 229.54l0 29.49 43.09 0c0,-37.78 -3.89,-56.7 24.96,-56.7 7.22,0 11.94,2.7 15.1,7.57 2.18,3.35 5.3,14.96 5.3,19.64 0,85.38 -88.45,97.16 -88.45,179.19l0 36.28 129.28 0 0 -40.81 -83.93 0c0,-58.75 88.47,-75.8 88.47,-176.92 0,-43.77 -24.24,-68.04 -68.05,-68.04 -43.41,0 -65.77,26.94 -65.77,70.3l0 0z"/>
   <path class="fil8" d="M874.75 168.31c0,45.07 -9.69,36.3 47.63,36.3l0 240.41 45.37 0 0 -240.41 45.35 0 0 -43.1 -131.54 0c-5.23,0 -6.81,1.59 -6.81,6.8z"/>
  </g>
  <path class="fil1" d="M234.54 554.31c-13.39,-25.48 -143.58,-246.3 -143.22,-250.22l143.72 -249.42 288.04 -0.03c12.98,21.06 24.74,42.68 36.28,62.56 10.03,17.26 107.42,184.33 107.33,187.7 -0.08,3.56 -129.79,225.1 -143.4,249.69l-288.75 -0.28 0 0zm-11.47 -520.2c-6.6,9.05 -13.17,22.57 -19.61,33.46 -14.96,25.2 -136.05,234.64 -135.95,237.23 0.11,3.23 68.79,120.01 77.66,135.81l58.52 101.45c5.95,10.24 13.75,23 19.09,33.33l312.82 -0.36c6.03,-11.53 12.12,-20.85 19.52,-34.09 6.72,-12.01 12.44,-21.71 19.65,-33.91 13.16,-22.32 26.48,-45.28 38.85,-67.47l58.58 -101.43c3.58,-6.09 18.57,-30.99 18.29,-34.12 -0.28,-3.1 -68.84,-120.09 -77.48,-135.21 -13.42,-23.45 -26.07,-45.27 -38.89,-67.35 -13.23,-22.76 -25.61,-45.95 -38.97,-67.46l-312.08 0.12z"/>
 </g>
</svg>
