<?xml version="1.0" encoding="UTF-8"?>
<!DOCTYPE svg PUBLIC "-//W3C//DTD SVG 1.0//EN" "http://www.w3.org/TR/2001/REC-SVG-20010904/DTD/svg10.dtd">
<!-- Creator: CorelDRAW 2020 (64-Bit) -->
<svg xmlns="http://www.w3.org/2000/svg" xml:space="preserve" width="1270px" height="330px" version="1.0" style="shape-rendering:geometricPrecision; text-rendering:geometricPrecision; image-rendering:optimizeQuality; fill-rule:evenodd; clip-rule:evenodd"
viewBox="0 0 1270 330"
 xmlns:xlink="http://www.w3.org/1999/xlink"
 xmlns:xodm="http://www.corel.com/coreldraw/odm/2003">
 <defs>
  <style type="text/css">
   <![CDATA[
    .fil4 {fill:#2A303E}
    .fil3 {fill:#2B313F}
    .fil0 {fill:#2C3341}
    .fil5 {fill:#2F3443}
    .fil6 {fill:#353542}
    .fil7 {fill:#6A6F76}
    .fil2 {fill:#EAEAEA}
    .fil1 {fill:#FA6A3D}
    .fil8 {fill:#FE6C3F}
   ]]>
  </style>
 </defs>
 <g id="Слой_x0020_1">
  <metadata id="CorelCorpID_0Corel-Layer"/>
  <g id="Безымянный-6.cdr">
   <path class="fil0" d="M237.88 275.08l-16.99 0.05 -0.15 -12.04 -31.26 -0.01c-0.54,-3.09 -0.31,-6.35 -0.32,-9.47 0,-4.55 0.46,-4.62 2.46,-7.8 2.57,-4.09 4.63,-7.67 7.59,-12.29 2.72,-4.22 5.18,-8.37 7.61,-12.27 9.65,-15.43 2.22,-12.17 31.02,-12.16l0.14 38.94 7.79 0.13 0.17 14.62 -7.64 0.19 -0.42 12.11zm-108.26 -55.8c3.04,-8.35 34.41,-19.5 49.11,-1.58 8.23,10.04 2.81,22.37 -4.77,30.34 -4.79,5.05 -10.57,8.46 -14.17,12.04l23.25 0.19 0.11 14.83 -51.54 0.05 -0.28 -13.13c8.9,-7.7 21.18,-14.54 29.41,-22.98 11.07,-11.35 0.1,-20.02 -14.03,-14.02 -3.42,1.46 -6.04,4.16 -8.15,4.93 -3.6,-2.99 -5.9,-7.17 -8.94,-10.67zm6.32 -21.42l-18.92 0.09c0.07,-2.98 21.57,-58.59 24.39,-66.08l21.49 -0.02c2.82,7.67 24.49,63.12 24.4,66.13l-18.82 -0.07 -3.28 -9.39 -26.12 0.01 -3.14 9.33zm73.76 -0.09l-17.18 0.22 0.04 -66.19 17.73 0.09 19.62 26.8c1.87,2.56 4.81,7.07 6.83,8.86l0.1 -35.57 17.17 -0.08 -0.06 65.82 -16.36 0.22c-4.92,-5.82 -24.56,-35.38 -27.93,-37.41l0.04 37.24zm-106.52 -33.47c12.65,2.42 15.86,23.93 2.57,31.18 -6.25,3.41 -15.5,2.51 -23.25,2.5 -8.72,0 -17.45,0.02 -26.18,0.02l-0.01 -66.16c9.58,0.04 40.35,-1.29 47.15,1.88 5.38,2.51 9.51,7.76 9.54,15.03 0.03,5.39 -1.69,9.23 -5.51,12.33 -1.6,1.31 -1.46,0.51 -3.87,2.76 -0.13,0.12 -0.31,0.3 -0.44,0.46zm195.58 -1.68l20.1 26.45c1.46,1.98 1.85,2.67 3.36,4.47 1.31,1.57 2.36,2.77 2.95,4.29l-15.43 0.09c-5.91,0 -5.02,0.26 -7.58,-3.62l-14.72 -20.76c-7.11,4.23 -3.53,13.47 -4.56,24.26l-16.87 0.09c-0.67,-20.53 -0.23,-44.8 -0.19,-65.94l17.19 -0.05 0.83 25.6c0.09,-0.1 0.28,-0.26 0.38,-0.37 0.11,-0.11 0.24,-0.25 0.35,-0.37l18.54 -24.67 20.69 -0.24c-1.26,2.76 -21.65,25.95 -25.04,30.77zm-154.3 -75.94c15.14,4.43 15.04,24.51 3.18,31.4 -5.85,3.4 -15.99,2.43 -23.55,2.43 -8.01,0 -18.19,0.54 -25.93,-0.12l-0.01 -65.77c9.04,-0.45 41.36,-1.24 47.58,1.93 8.95,4.57 12.14,16.53 6,24.66 -2.48,3.3 -4.31,3.2 -7.27,5.47zm16 -32.18l54.01 0.04 -0.01 14.71 -18.23 0.25 -0.21 50.97 -17.13 0.07 -0.02 -51.01 -18.38 -0.06 -0.03 -14.97zm106.49 42.95l14.4 6.51c-14.06,30.28 -64.18,20.38 -64.43,-16.08 -0.25,-37.57 51.11,-46.65 64.28,-16.88 -1.19,1.19 -11.8,6.07 -14.25,6.76 -4.32,-5.93 -9.6,-12.07 -20.26,-8.33 -16.42,5.76 -16.53,30.07 -0.47,36.15 4.04,1.52 8.99,1.58 12.77,-0.33 4.29,-2.16 5.28,-3.89 7.96,-7.8zm-161.47 213.26l168.67 0.17c7.95,-14.37 83.72,-143.78 83.77,-145.86 0.05,-1.96 -56.85,-99.56 -62.7,-109.64 -6.74,-11.61 -13.61,-24.24 -21.19,-36.54l-168.26 0.01 -83.95 145.7c-0.21,2.3 75.83,131.28 83.66,146.16z"/>
   <path class="fil1" d="M105.48 310.71c-7.83,-14.88 -83.87,-143.86 -83.66,-146.16l83.95 -145.7 168.26 -0.01c7.58,12.3 14.45,24.93 21.19,36.54 5.85,10.08 62.75,107.68 62.7,109.64 -0.05,2.08 -75.82,131.49 -83.77,145.86l-168.67 -0.17zm-6.71 -303.87c-3.85,5.29 -7.68,13.2 -11.45,19.55 -8.74,14.73 -79.47,137.06 -79.41,138.57 0.07,1.89 40.18,70.11 45.36,79.34l34.18 59.26c3.48,5.98 8.04,13.44 11.16,19.47l182.73 -0.21c3.52,-6.74 7.08,-12.19 11.4,-19.92 3.93,-7.01 7.27,-12.67 11.48,-19.81 7.69,-13.02 15.48,-26.44 22.69,-39.41l34.23 -59.25c2.09,-3.55 10.85,-18.1 10.68,-19.93 -0.16,-1.81 -40.21,-70.14 -45.26,-78.98 -7.84,-13.7 -15.23,-26.44 -22.72,-39.34 -7.72,-13.3 -14.96,-26.84 -22.77,-39.41l-182.3 0.07z"/>
   <path class="fil2" d="M73.22 183.46l0.13 -11.76c4.81,-0.15 9.78,-0.05 14.59,-0.06 4.85,0 8.64,0.68 8.97,5.49 0.36,5.19 -3.53,6.39 -8.37,6.38 -5.05,-0.01 -10.3,0.11 -15.32,-0.05zm0.17 -37.16c7.09,-0.02 22.54,-2.72 22.31,5.46 -0.13,5 -3.63,5.4 -8.36,5.38 -4.59,-0.02 -9.34,-0.11 -14.03,0.05l0.08 -10.89zm29.79 18c0.13,-0.16 0.31,-0.34 0.44,-0.46 2.41,-2.25 2.27,-1.45 3.87,-2.76 3.82,-3.1 5.54,-6.94 5.51,-12.33 -0.03,-7.27 -4.16,-12.52 -9.54,-15.03 -6.8,-3.17 -37.57,-1.84 -47.15,-1.88l0.01 66.16c8.73,0 17.46,-0.02 26.18,-0.02 7.75,0.01 17,0.91 23.25,-2.5 13.29,-7.25 10.08,-28.76 -2.57,-31.18z"/>
   <path class="fil2" d="M115.07 94.54c4.66,-0.42 10.28,-0.15 15.06,-0.17 4.85,-0.01 8.75,0.76 8.62,6.18 -0.12,5.04 -4.52,5.72 -9.23,5.69 -4.27,-0.01 -10.43,0.39 -14.41,-0.24l-0.04 -11.46zm18.72 -15.26c-1.56,0.95 -2.25,0.8 -4.27,0.82l-14.53 -0.08c-0.15,-3.62 -0.62,-7.81 0.24,-11.26 2.52,-0.01 17.44,-0.65 18.34,0.78 5.18,0.95 5.33,8.46 0.22,9.74zm10.67 7.4c2.96,-2.27 4.79,-2.17 7.27,-5.47 6.14,-8.13 2.95,-20.09 -6,-24.66 -6.22,-3.17 -38.54,-2.38 -47.58,-1.93l0.01 65.77c7.74,0.66 17.92,0.12 25.93,0.12 7.56,0 17.7,0.97 23.55,-2.43 11.86,-6.89 11.96,-26.97 -3.18,-31.4z"/>
   <path class="fil2" d="M209.66 160.53c3.37,2.03 23.01,31.59 27.93,37.41l16.36 -0.22 0.06 -65.82 -17.17 0.08 -0.1 35.57c-2.02,-1.79 -4.96,-6.3 -6.83,-8.86l-19.62 -26.8 -17.73 -0.09 -0.04 66.19 17.18 -0.22 -0.04 -37.24z"/>
   <path class="fil2" d="M152.18 149.04l8.19 24.51 -16.58 -0.14 8.39 -24.37zm-13.1 39.49l26.12 -0.01 3.28 9.39 18.82 0.07c0.09,-3.01 -21.58,-58.46 -24.4,-66.13l-21.49 0.02c-2.82,7.49 -24.32,63.1 -24.39,66.08l18.92 -0.09 3.14 -9.33z"/>
   <path class="fil2" d="M298.76 162.62c3.39,-4.82 23.78,-28.01 25.04,-30.77l-20.69 0.24 -18.54 24.67c-0.11,0.12 -0.24,0.26 -0.35,0.37 -0.1,0.11 -0.29,0.27 -0.38,0.37l-0.83 -25.6 -17.19 0.05c-0.04,21.14 -0.48,45.41 0.19,65.94l16.87 -0.09c1.03,-10.79 -2.55,-20.03 4.56,-24.26l14.72 20.76c2.56,3.88 1.67,3.62 7.58,3.62l15.43 -0.09c-0.59,-1.52 -1.64,-2.72 -2.95,-4.29 -1.51,-1.8 -1.9,-2.49 -3.36,-4.47l-20.1 -26.45z"/>
   <path class="fil1" d="M206.29 248c0.36,-2.14 12.02,-21.09 14.45,-22.82l-0.25 22.95 -14.2 -0.13zm32.01 14.97l7.64 -0.19 -0.17 -14.62 -7.79 -0.13 -0.14 -38.94c-28.8,-0.01 -21.37,-3.27 -31.02,12.16 -2.43,3.9 -4.89,8.05 -7.61,12.27 -2.96,4.62 -5.02,8.2 -7.59,12.29 -2,3.18 -2.46,3.25 -2.46,7.8 0.01,3.12 -0.22,6.38 0.32,9.47l31.26 0.01 0.15 12.04 16.99 -0.05 0.42 -12.11z"/>
   <path class="fil2" d="M266.95 97.45c-2.68,3.91 -3.67,5.64 -7.96,7.8 -3.78,1.91 -8.73,1.85 -12.77,0.33 -16.06,-6.08 -15.95,-30.39 0.47,-36.15 10.66,-3.74 15.94,2.4 20.26,8.33 2.45,-0.69 13.06,-5.57 14.25,-6.76 -13.17,-29.77 -64.53,-20.69 -64.28,16.88 0.25,36.46 50.37,46.36 64.43,16.08l-14.4 -6.51z"/>
   <path class="fil1" d="M129.62 219.28c3.04,3.5 5.34,7.68 8.94,10.67 2.11,-0.77 4.73,-3.47 8.15,-4.93 14.13,-6 25.1,2.67 14.03,14.02 -8.23,8.44 -20.51,15.28 -29.41,22.98l0.28 13.13 51.54 -0.05 -0.11 -14.83 -23.25 -0.19c3.6,-3.58 9.38,-6.99 14.17,-12.04 7.58,-7.97 13,-20.3 4.77,-30.34 -14.7,-17.92 -46.07,-6.77 -49.11,1.58z"/>
   <polygon class="fil2" points="160.49,69.47 178.87,69.53 178.89,120.54 196.02,120.47 196.23,69.5 214.46,69.25 214.47,54.54 160.46,54.5 "/>
   <path class="fil3" d="M115.11 106c3.98,0.63 10.14,0.23 14.41,0.24 4.71,0.03 9.11,-0.65 9.23,-5.69 0.13,-5.42 -3.77,-6.19 -8.62,-6.18 -4.78,0.02 -10.4,-0.25 -15.06,0.17l0.04 11.46z"/>
   <path class="fil3" d="M73.22 183.46c5.02,0.16 10.27,0.04 15.32,0.05 4.84,0.01 8.73,-1.19 8.37,-6.38 -0.33,-4.81 -4.12,-5.49 -8.97,-5.49 -4.81,0.01 -9.78,-0.09 -14.59,0.06l-0.13 11.76z"/>
   <path class="fil4" d="M73.31 157.19c4.69,-0.16 9.44,-0.07 14.03,-0.05 4.73,0.02 8.23,-0.38 8.36,-5.38 0.23,-8.18 -15.22,-5.48 -22.31,-5.46l-0.08 10.89z"/>
   <path class="fil3" d="M133.79 79.28c5.11,-1.28 4.96,-8.79 -0.22,-9.74 -5.13,0.12 -13.19,-0.06 -18.46,-0.38l0.13 10.73c6.16,-0.51 12.05,0.09 18.55,-0.61z"/>
   <polygon class="fil5" points="143.79,173.41 160.37,173.55 152.18,149.04 "/>
   <path class="fil6" d="M206.29 248l14.2 0.13 0.25 -22.95c-2.43,1.73 -14.09,20.68 -14.45,22.82z"/>
   <path class="fil7" d="M133.79 79.28c-6.5,0.7 -12.39,0.1 -18.55,0.61l-0.13 -10.73c5.27,0.32 13.33,0.5 18.46,0.38 -0.9,-1.43 -15.82,-0.79 -18.34,-0.78 -0.86,3.45 -0.39,7.64 -0.24,11.26l14.53 0.08c2.02,-0.02 2.71,0.13 4.27,-0.82z"/>
   <g>
    <path class="fil0" d="M879.65 249.95l24.76 0 1.27 -114.05 26.79 98.37c1.45,5.77 3.44,9.9 3.57,15.68l28.88 0 0 -171.9c-31.27,0 -24.76,-7.8 -24.76,45.38 0,16.96 0,33.92 0,50.88l-0.89 -1.86c-0.27,-0.73 -0.87,-2.41 -1.06,-3.06l-18.68 -69.33c-7.22,-27.49 0.23,-22.01 -39.88,-22.01l0 171.9z"/>
    <path class="fil0" d="M442.33 225.2l-15.13 0 0 -50.89c29.56,0 27.51,-1.22 27.51,38.51 0,7.49 -4.89,12.38 -12.38,12.38zm-5.5 -77.02l-9.63 0 0 -44c26.14,0 24.76,0.59 24.76,28.88 0,10.31 -4.82,15.12 -15.13,15.12zm-38.51 -66.01l0 167.78 49.51 0c38.86,0 34.38,-39 34.38,-60.51 0,-7.06 -2.23,-15.16 -5.22,-19.53 -4.91,-7.2 -9.62,-7.95 -12.65,-12.1 20.32,-5.43 23.46,-61.04 -0.02,-74.24 -12.97,-7.29 -45.08,-5.52 -61.87,-5.52 -3.17,0 -4.13,0.96 -4.13,4.12z"/>
    <path class="fil0" d="M724.25 225.2l-16.5 0 0 -50.89c29.47,0 28.88,-1.73 28.88,35.76 0,8.58 -3.94,15.13 -12.38,15.13zm-4.12 -77.02l-12.38 0 0 -44c24.91,0 26.13,-0.92 26.13,27.5 0,9.5 -4.41,16.5 -13.75,16.5zm-39.89 -66.01l0 167.78 50.89 0c8.9,0 19.21,-5.7 23.76,-10.62 13.43,-14.55 11.18,-55.9 4.25,-68.27 -3.84,-6.86 -9.51,-8.64 -12.88,-13.25 16.98,-4.53 15.12,-32.2 15.12,-45.38 0,-40.92 -46.55,-34.38 -77.01,-34.38 -3.17,0 -4.13,0.96 -4.13,4.12z"/>
    <path class="fil0" d="M984.17 249.95l27.5 0 0 -49.51c0,-5.43 5.03,-14.13 8.25,-16.5l24.76 66.01 28.88 0c-1.55,-3.23 -2.75,-7.58 -4.11,-11.02 -1.47,-3.69 -2.77,-6.86 -4.34,-10.79l-27.06 -67.98c-2.91,-7.52 2.8,-13.94 6.17,-20.68l25.74 -52.75c5.53,-10.43 5.97,-8.68 -19.78,-8.68 -6.32,0 -15.98,26.45 -20.17,34.84l-18.34 36.67 0.01 -56.39c0.17,-18.01 4.48,-15.12 -27.51,-15.12l0 171.9z"/>
    <path class="fil0" d="M819.14 116.55c5.24,22.49 7.47,57.33 12.38,78.39l-24.76 0 12.38 -78.39zm-46.76 133.4l26.13 0c0.83,-9.91 4.13,-19.7 4.13,-30.26l33 0c0,9.61 3.36,20.99 4.13,30.26l27.51 0c0,-8.17 -1.79,-14.24 -2.83,-21.93 -0.96,-7.15 -2.18,-13.61 -3.46,-21.29l-19.19 -119.71c-1.65,-11.6 3.85,-8.97 -37.79,-8.97 -5.64,0 -5.39,9.02 -6.64,18.11 -1.17,8.45 -2.15,14.11 -3.57,22.56l-21.42 131.23z"/>
    <path class="fil8" d="M1226.21 137.18l0 56.39 -24.76 0c2.09,-3.95 3.92,-8.78 5.88,-13.38 2.65,-6.16 15.32,-38.92 18.88,-43.01zm-50.89 61.89l0 20.62 50.89 0 0 30.26 28.88 0 0 -30.26 12.37 0 0 -24.75 -12.37 0 0 -112.77c0,-6.67 -10.01,-4.12 -27.51,-4.12 -4.8,0 -5.22,5.53 -8.21,12.41 -6.92,15.89 -44.05,99.8 -44.05,108.61z"/>
    <path class="fil0" d="M583.98 117.93l0 92.14c0,25.89 14.08,42.63 39.88,42.63 44.55,0 41.26,-36.01 41.26,-63.26 0,-6.23 -7.06,-4.12 -22.01,-4.12 -13.2,0 9.4,41.25 -19.25,41.25 -8.72,0 -12.38,-7.86 -12.38,-16.5l0 -89.39c0,-20.08 9.7,-17.88 17.88,-17.88 11.76,0 9.63,25.17 9.63,34.38l26.13 0c0,-27.39 2.06,-60.51 -41.26,-60.51 -25.46,0 -39.88,15.83 -39.88,41.26z"/>
    <path class="fil8" d="M1084.56 119.3l0 17.88 26.13 0c0,-22.91 -2.36,-34.38 15.13,-34.38 4.38,0 7.24,1.64 9.16,4.59 1.32,2.03 3.21,9.07 3.21,11.91 0,51.77 -53.63,58.91 -53.63,108.65l0 22 78.39 0 0 -24.75 -50.89 0c0,-35.62 53.64,-45.96 53.64,-107.27 0,-26.54 -14.7,-41.26 -41.26,-41.26 -26.32,0 -39.88,16.34 -39.88,42.63z"/>
    <path class="fil0" d="M490.46 82.17c0,27.33 -5.87,22.01 28.88,22.01l0 145.77 27.51 0 0 -145.77 27.5 0 0 -26.13 -79.76 0c-3.17,0 -4.13,0.96 -4.13,4.12z"/>
   </g>
   <path class="fil1" d="M102.28 316.22c-8.12,-15.45 -87.06,-149.34 -86.84,-151.72l87.14 -151.23 174.65 -0.02c7.87,12.77 15,25.88 22,37.93 6.08,10.47 65.13,111.77 65.08,113.81 -0.05,2.16 -78.7,136.49 -86.95,151.4l-175.08 -0.17zm-6.96 -315.42c-4,5.49 -7.98,13.69 -11.89,20.29 -9.07,15.28 -82.49,142.27 -82.43,143.84 0.07,1.96 41.71,72.77 47.09,82.35l35.48 61.51c3.61,6.21 8.34,13.95 11.58,20.21l189.67 -0.22c3.66,-6.99 7.35,-12.64 11.84,-20.67 4.07,-7.28 7.54,-13.16 11.91,-20.56 7.98,-13.53 16.06,-27.45 23.56,-40.91l35.52 -61.5c2.17,-3.69 11.26,-18.79 11.09,-20.69 -0.17,-1.88 -41.74,-72.81 -46.98,-81.98 -8.14,-14.22 -15.81,-27.45 -23.58,-40.84 -8.02,-13.8 -15.53,-27.86 -23.63,-40.9l-189.23 0.07z"/>
  </g>
 </g>
</svg>
