<?xml version="1.0" encoding="UTF-8"?>
<!DOCTYPE svg PUBLIC "-//W3C//DTD SVG 1.0//EN" "http://www.w3.org/TR/2001/REC-SVG-20010904/DTD/svg10.dtd">
<!-- Creator: CorelDRAW 2020 (64-Bit) -->
<svg xmlns="http://www.w3.org/2000/svg" xml:space="preserve" width="83.9046mm" height="24.0452mm" version="1.0" style="shape-rendering:geometricPrecision; text-rendering:geometricPrecision; image-rendering:optimizeQuality; fill-rule:evenodd; clip-rule:evenodd"
viewBox="0 0 8390.46 2404.52"
 xmlns:xlink="http://www.w3.org/1999/xlink"
 xmlns:xodm="http://www.corel.com/coreldraw/odm/2003">
 <defs>
  <style type="text/css">
   <![CDATA[
    .fil0 {fill:#2C3341}
    .fil1 {fill:#FE6C3F}
   ]]>
  </style>
 </defs>
 <g id="Слой_x0020_1">
  <metadata id="CorelCorpID_0Corel-Layer"/>
  <g id="_1311381785200">
   <path class="fil0" d="M1598.27 1761.06l-431.8 0 0 -397.93 372.54 0c27.27,0 177.8,152.36 177.8,152.39 0,31.14 -79.39,245.54 -118.54,245.54zm-59.26 -685.8l-372.54 0 0 -406.4c466.05,0 388.72,-34.92 457.2,101.6 76.6,152.7 67.65,131.44 -2.63,217.5 -15.13,18.53 -22.84,27.5 -37.14,47.53 -13.02,18.26 -20.57,39.77 -44.89,39.77zm-702.74 999.06l939.8 0c28.25,0 18.81,-11.17 45.09,-64.98l259.71 -553.08 -192.69 -171.38c-22.16,-22.47 -37.09,-48.49 -69.77,-57.22 3.07,-36.94 5.44,-26.66 48.16,-78.83l163.5 -217.5c-8.66,-37.2 -51.11,-110.69 -70.55,-149.58 -25.89,-51.77 -48.69,-97.37 -73.38,-146.75 -24.69,-49.38 -47.49,-94.99 -73.38,-146.76 -51.33,-102.64 -44.83,-132.64 -95.95,-132.64l-880.54 0 0 1718.72z"/>
   <path class="fil1" d="M785.47 186.27l1185.34 0c7.87,33.8 123.63,219.94 143.49,254.43l403.26 697.4c15.49,26.36 22,41.09 37.44,64.16 -6.94,29.83 -20.56,46.08 -33.41,68.18l-408.39 709.21c-26.15,43.19 -51.25,85.25 -74.66,128.54 -12.81,23.68 -22.52,38.54 -37.5,64.1 -13.23,22.58 -22.71,54.43 -47.17,54.43l-1151.46 0c-24.5,0 -31.82,-27.72 -44.1,-49.03 -13.71,-23.79 -22.19,-40.49 -36.87,-64.73l-515.98 -896.49c-2.89,-21.26 47.21,-101.52 61.86,-125.96l372.68 -643.32c26.68,-44.07 47.23,-83.58 74.14,-129.06l71.33 -131.86zm-42.33 2150.52l1270 0c27.73,0 67.88,-84.03 92.71,-127.43 28.5,-49.81 53.61,-94.25 82.47,-146.12l490.01 -852.46c0.29,-18.14 -137.6,-245.57 -159.8,-285.31 -27.72,-49.6 -51.61,-91.76 -80.43,-139.7 -29.91,-49.75 -53.33,-94.55 -83.62,-144.98 -57.84,-96.25 -108.74,-188.8 -163.98,-284.75l-145.51 -252.43c-10.91,-17.3 -6.95,-27.41 -31.85,-27.41l-1270 0c-23.91,0 -27.47,18.99 -50.39,59.68l-123.84 214.83c-57.09,97.12 -107.74,191.55 -163.95,284.77l-164.26 284.48c-20.46,37.47 -160.2,268.65 -162.36,285.15 -2.95,22.58 310.18,550.53 321.27,569.28l289.11 498.28c14.51,24.84 24.03,64.12 54.42,64.12z"/>
   <path class="fil0" d="M6000.94 1701.79l152.4 0 7.86 -702.13 164.9 605.57c8.92,35.57 21.18,60.99 21.97,96.56l177.8 0 0 -1058.33c-192.49,0 -152.4,-48 -152.4,279.4 0,104.42 0,208.85 0,313.27l-5.46 -11.48c-1.69,-4.48 -5.39,-14.84 -6.57,-18.83l-115.02 -426.84c-44.4,-169.22 1.44,-135.52 -245.48,-135.52l0 1058.33z"/>
   <path class="fil0" d="M3308.54 1549.39l-93.14 0 0 -313.26c181.93,0 169.34,-7.52 169.34,237.06 0,46.1 -30.11,76.2 -76.2,76.2zm-33.87 -474.13l-59.27 0 0 -270.93c160.9,0 152.4,3.67 152.4,177.8 0,63.47 -29.66,93.13 -93.13,93.13zm-237.07 -406.4l0 1032.93 304.8 0c239.21,0 211.67,-240.11 211.67,-372.53 0,-43.46 -13.74,-93.37 -32.14,-120.26 -30.28,-44.28 -59.23,-48.95 -77.93,-74.47 125.13,-33.41 144.48,-375.81 -0.12,-457.07 -79.82,-44.86 -277.49,-34 -380.88,-34 -19.5,0 -25.4,5.9 -25.4,25.4z"/>
   <path class="fil0" d="M5044.2 1549.39l-101.6 0 0 -313.26c181.46,0 177.8,-10.7 177.8,220.13 0,52.83 -24.22,93.13 -76.2,93.13zm-25.4 -474.13l-76.2 0 0 -270.93c153.38,0 160.87,-5.64 160.87,169.33 0,58.49 -27.13,101.6 -84.67,101.6zm-245.53 -406.4l0 1032.93 313.27 0c54.82,0 118.28,-35.12 146.26,-65.41 82.7,-89.53 68.86,-344.12 26.19,-420.31 -23.64,-42.23 -58.55,-53.19 -79.32,-81.54 104.55,-27.92 93.13,-198.26 93.13,-279.4 0,-251.95 -286.61,-211.67 -474.13,-211.67 -19.51,0 -25.4,5.9 -25.4,25.4z"/>
   <path class="fil0" d="M6644.4 1701.79l169.33 0 0 -304.8c0,-33.43 30.93,-87.03 50.8,-101.6l152.4 406.4 177.8 0c-9.53,-19.88 -16.89,-46.64 -25.31,-67.82 -9.05,-22.77 -17.04,-42.26 -26.7,-66.43l-166.6 -418.52c-17.92,-46.3 17.23,-85.85 37.99,-127.38l158.46 -324.72c34.08,-64.2 36.8,-53.46 -121.77,-53.46 -38.93,0 -98.35,162.87 -124.18,214.49l-112.89 225.78 0.08 -347.2c1.05,-110.84 27.56,-93.07 -169.41,-93.07l0 1058.33z"/>
   <path class="fil0" d="M5628.4 880.53c32.26,138.46 45.99,352.92 76.2,482.6l-152.4 0 76.2 -482.6zm-287.86 821.26l160.86 0c5.08,-61.01 25.4,-121.26 25.4,-186.27l203.2 0c0,59.13 20.65,129.19 25.4,186.27l169.34 0c0,-50.32 -11.01,-87.65 -17.39,-135.01 -5.93,-44 -13.42,-83.81 -21.32,-131.08l-118.15 -736.98c-10.15,-71.43 23.7,-55.26 -232.61,-55.26 -34.76,0 -33.2,55.51 -40.92,111.48 -7.18,52.04 -13.25,86.9 -21.97,138.9l-131.84 807.95z"/>
   <path class="fil1" d="M8134.53 1007.53l0 347.13 -152.4 0c12.86,-24.29 24.1,-54.04 36.22,-82.32 16.26,-37.95 94.3,-239.64 116.18,-264.81zm-313.26 381l0 126.99 313.26 0 0 186.27 177.8 0 0 -186.27 76.2 0 0 -152.39 -76.2 0 0 -694.27c0,-41.1 -61.6,-25.4 -169.33,-25.4 -29.54,0 -32.13,34.07 -50.57,76.43 -42.56,97.79 -271.16,614.43 -271.16,668.64z"/>
   <path class="fil0" d="M4180.6 889l0 567.26c0,159.42 86.68,262.46 245.54,262.46 274.24,0 254,-221.68 254,-389.46 0,-38.34 -43.43,-25.4 -135.47,-25.4 -81.32,0 57.83,254 -118.53,254 -53.7,0 -76.2,-48.39 -76.2,-101.6l0 -550.33c0,-123.63 59.68,-110.07 110.06,-110.07 72.42,0 59.27,154.93 59.27,211.67l160.87 0c0,-168.66 12.71,-372.53 -254,-372.53 -156.74,0 -245.54,97.41 -245.54,254z"/>
   <path class="fil1" d="M40.41 1202.26l496.62 -858.03c22.61,-41.41 155.09,-256.12 163.78,-293.43l1354.66 0c8.93,38.32 140.16,250.09 163.77,293.43l459.87 793.2c19.82,36.14 38.25,51.26 33.34,78.1l-583.68 1016.75c-15.78,28.96 -68.5,138.37 -98.7,138.37l-1303.86 0c-31.19,0 -62.57,-80.89 -94.68,-133.92l-167.79 -289.41c-102.67,-189.58 -352.53,-586.61 -423.33,-745.06zm660.4 1202.26l1354.66 0c30.14,0 79.97,-111.4 93.57,-135.03l260.4 -450.79c30.92,-51.43 57.28,-99.17 86.74,-150.34l258.6 -452.83c3.84,-21 -1.82,-25 -11.06,-40.42l-671.32 -1166.64 -1388.53 0 -168.91 296.75c-29.35,51.31 -56.16,100.25 -85.51,151.56 -42.46,74.2 -430.4,725.54 -428.85,752.64 1.33,23.24 145.12,260.01 169.42,303.49l433.96 751.37c28.72,47.43 68.63,140.24 96.83,140.24z"/>
   <path class="fil1" d="M7262.47 897.46l0 110.07 160.86 0c0,-141.09 -14.5,-211.67 93.14,-211.67 26.99,0 44.61,10.1 56.41,28.26 8.12,12.48 19.79,55.81 19.79,73.34 0,318.7 -330.2,362.66 -330.2,668.86l0 135.47 482.6 0 0 -152.4 -313.27 0c0,-219.27 330.2,-282.93 330.2,-660.39 0,-163.43 -90.51,-254 -254,-254 -162.01,0 -245.53,100.58 -245.53,262.46z"/>
   <path class="fil0" d="M3604.87 668.86c0,168.21 -36.17,135.47 177.8,135.47l0 897.46 169.33 0 0 -897.46 169.34 0 0 -160.87 -491.07 0c-19.51,0 -25.4,5.9 -25.4,25.4z"/>
  </g>
 </g>
</svg>
