<?xml version="1.0" encoding="UTF-8"?>
<!DOCTYPE svg PUBLIC "-//W3C//DTD SVG 1.0//EN" "http://www.w3.org/TR/2001/REC-SVG-20010904/DTD/svg10.dtd">
<!-- Creator: CorelDRAW 2020 (64-Bit) -->
<svg xmlns="http://www.w3.org/2000/svg" xml:space="preserve" width="1495px" height="1501px" version="1.0" style="shape-rendering:geometricPrecision; text-rendering:geometricPrecision; image-rendering:optimizeQuality; fill-rule:evenodd; clip-rule:evenodd"
viewBox="0 0 1495 1501"
 xmlns:xlink="http://www.w3.org/1999/xlink"
 xmlns:xodm="http://www.corel.com/coreldraw/odm/2003">
 <defs>
  <style type="text/css">
   <![CDATA[
    .str1 {stroke:red;stroke-width:25;stroke-miterlimit:22.9256}
    .str0 {stroke:#2F2F2F;stroke-width:2.36;stroke-miterlimit:22.9256}
    .fil4 {fill:none}
    .fil0 {fill:black}
    .fil2 {fill:#2F2F2F}
    .fil1 {fill:#B1B1B2}
    .fil3 {fill:red}
   ]]>
  </style>
   <clipPath id="id0">
    <rect x="-4814.21" y="-4070.82" width="5175" height="11200"/>
   </clipPath>
   <clipPath id="id1">
    <rect x="1045.8" y="-4103.32" width="5175" height="11200"/>
   </clipPath>
 </defs>
 <g id="Слой_x0020_1">
  <metadata id="CorelCorpID_0Corel-Layer"/>
  <g style="clip-path:url(#id0)">
   <image id="IMG_5057.PNG" x="-4814.21" y="-4070.82" width="5175" height="11200.01" xlink:href="obmen-bitcoin-na-sberbank_Images\obmen-bitcoin-na-sberbank_ImgID1.png"/>
  </g>
  <g id="Резервная_копия_рамка_x0020_айфон.cdr">
   <g>
    <path class="fil0" d="M-4068.45 -3979.44l300.16 0c229.78,0 83.46,144.64 216.36,274.1 114.34,111.39 134.01,139.17 352.24,137.85 577.8,-3.52 1411.78,19.66 1936.89,4 186.98,-5.56 281.22,-3.8 374.23,-110.38 111.96,-128.29 16.65,-305.57 185,-305.57 276.84,0 631.32,-36 824.08,124.11 96.73,80.36 186.96,210.1 186.96,382.78l0 10010.89c0,266.45 -261.71,475.2 -537.11,475.2l-3980.99 0c-223.14,0 -397.86,-128.47 -478.07,-280.97 -81.56,-155.04 -59.03,-411.05 -59.03,-669.44l0 -9187.21c0,-282.37 -13.29,-488.07 107.77,-652.24 112.36,-152.35 311.13,-203.12 571.51,-203.12zm2393.2 40.82c168.86,-57.34 217.08,89.07 141.17,156.87 -83.51,74.59 -193.71,-4.9 -141.17,-156.87zm-813.44 119.61c-67.73,0 -41.27,2.91 -73.31,-22.57 1.09,-51.09 19.39,-58.99 73.31,-58.99l537.11 0c76.59,0 73.85,-1.42 80.06,73.53 -171.9,16.41 -435.36,8.03 -617.17,8.03zm-1867.16 -405.78c-290.89,46.33 -500.46,238.61 -595.69,468.52 -94.96,229.26 -56.71,733.03 -56.71,1012.35l0 8537.76c0,280.22 -38.99,777.57 62.29,1006.38 276.97,625.68 963,466.5 1667.38,466.5 432.41,0 2996.88,21.54 3197.24,-9.11 295.42,-45.2 493.48,-237.94 591.7,-468.46 93.57,-219.66 57.62,-737.48 57.62,-1011.14l0 -8537.76c0,-285.92 41.46,-770.14 -61.41,-1007.54 -96.72,-223.23 -317.34,-431.27 -612.99,-461.73 -200.52,-20.67 -2750.38,-3.63 -3187.94,-3.63 -274.71,0 -822.29,-30.25 -1061.49,7.86z"/>
    <path class="fil1" d="M-4355.85 -4224.79c239.2,-38.11 786.78,-7.86 1061.49,-7.86 437.56,0 2987.42,-17.04 3187.94,3.63 295.65,30.46 516.27,238.5 612.99,461.73 102.87,237.4 61.41,721.62 61.41,1007.54l0 8537.76c0,273.66 35.95,791.48 -57.62,1011.14 -98.22,230.52 -296.28,423.26 -591.7,468.46 -200.36,30.65 -2764.83,9.11 -3197.24,9.11 -704.38,0 -1390.41,159.18 -1667.38,-466.5 -101.28,-228.81 -62.29,-726.16 -62.29,-1006.38l0 -8537.76c0,-279.32 -38.25,-783.09 56.71,-1012.35 95.23,-229.91 304.8,-422.19 595.69,-468.52zm-755.24 2716.4l15.8 7238.88c0,390.14 -33.62,824.96 83.07,1104.7 95.2,228.19 383.3,495.14 691.02,495.14l4202.13 0c273.54,0 535.62,-221 643.26,-400.46 153.8,-256.44 130.83,-535.68 130.83,-930.1l-0.05 -6098.46c-1.24,-271.93 31.64,-169.54 31.64,-237.55l0 -1203.83c0,-61.16 -33.04,-81.08 -32.19,-205.33 2.95,-426.2 18.77,-1339.97 0.41,-1663.59 -33.28,-586.47 -374.7,-903.09 -995.06,-903.09l-3759.81 0c-617.99,0 -974.96,322.56 -995.62,918.35 -11.05,319.06 -13.83,643.77 -15.62,950.97 -0.91,158.48 22.54,284.2 16.35,459.54 -5.17,146.58 -16.16,303.04 -16.16,474.83z"/>
    <path class="fil2" d="M-2562 -3841.58c32.04,25.48 5.58,22.57 73.31,22.57 181.81,0 445.27,8.38 617.17,-8.03 -6.21,-74.95 -3.47,-73.53 -80.06,-73.53l-537.11 0c-53.92,0 -72.22,7.9 -73.31,58.99z"/>
    <path class="fil0" d="M-1675.25 -3938.62c-52.54,151.97 57.66,231.46 141.17,156.87 75.91,-67.8 27.69,-214.21 -141.17,-156.87z"/>
   </g>
   <ellipse class="fil2 str0" cx="-1608.14" cy="-3858.01" rx="102.81" ry="103.2"/>
   <rect class="fil2 str0" x="-2574.57" y="-3915.81" width="719.68" height="98.81" rx="29.54" ry="42.26"/>
  </g>
  <path class="fil3" d="M-446.44 2451.02l0 141.25c-0.01,10.22 -0.07,12.52 5.84,18.93 3.9,4.24 11.68,8.38 20.81,8.38l621.91 0 0 126.59 -617.47 0c-10.61,0 -17.48,2.67 -22.9,6.81 -5.93,4.52 -8.26,8.99 -8.2,17.84l0.01 144.58 -150.92 -86.71c-4.23,-2.54 -8.44,-4.6 -12.68,-7.14 -4.3,-2.58 -8.05,-4.7 -12.57,-7.23l-228.07 -130.78c2.82,-3.16 44.79,-26.48 49.74,-29.32l189.75 -108.88c4.51,-2.56 8.36,-4.56 12.62,-7.19 4.19,-2.6 8.47,-4.77 12.65,-7.17l139.48 -79.96zm56.86 508.35l0 -170.56 623.69 0c10.63,0 24.87,-9.11 24.87,-19.99l0 -172.56c0,-9.39 -13.07,-19.32 -30.2,-19.32l-618.36 0 0 -169.22c0,-6.9 -4.32,-10.9 -9.1,-14.5 -5.3,-4.01 -13.4,-6.62 -20.87,-6.02 -12.3,0.98 -18.18,6.15 -27.52,11.38l-197.87 113.45c-59.98,33.63 -120.78,70.06 -180.74,103.65l-86.59 49.66c-16.17,9.78 -16.29,24.1 -4.37,33.02l254.69 146.13c52,29.15 104.52,60.6 156.62,89.75 3.06,1.71 4.94,2.96 7.99,4.67l41.33 23.64c8,4.96 26.63,16.8 36.22,16.8l5.33 0c12.62,0 24.88,-10.29 24.88,-19.98z"/>
  <rect class="fil4 str1" x="-4726.14" y="4845.4" width="2461.56" height="524.32"/>
  <g style="clip-path:url(#id1)">
   <image id="IMG_5058.PNG" x="1045.8" y="-4103.32" width="5175" height="11200.01" xlink:href="obmen-bitcoin-na-sberbank_Images\obmen-bitcoin-na-sberbank_ImgID2.png"/>
  </g>
  <g id="Резервная_копия_рамка_x0020_айфон.cdr_0">
   <g>
    <path class="fil0" d="M1781.78 -3979.41l300.15 0c229.78,0 83.47,144.64 216.37,274.1 114.34,111.39 134.01,139.18 352.24,137.85 577.8,-3.52 1411.78,19.66 1936.89,4 186.97,-5.56 281.22,-3.8 374.23,-110.38 111.95,-128.29 16.64,-305.57 185,-305.57 276.84,0 631.31,-36 824.07,124.11 96.73,80.36 186.96,210.1 186.96,382.78l0 10010.89c0,266.45 -261.7,475.2 -537.1,475.2l-3980.99 0c-223.14,0 -397.86,-128.47 -478.07,-280.97 -81.56,-155.04 -59.04,-411.05 -59.04,-669.43l0 -9187.22c0,-282.37 -13.28,-488.07 107.77,-652.24 112.37,-152.35 311.13,-203.12 571.52,-203.12zm2393.2 40.82c168.86,-57.34 217.07,89.07 141.17,156.87 -83.52,74.6 -193.71,-4.9 -141.17,-156.87zm-813.44 119.61c-67.73,0 -41.27,2.92 -73.31,-22.57 1.08,-51.09 19.39,-58.98 73.31,-58.98l537.1 0c76.6,0 73.86,-1.43 80.07,73.52 -171.9,16.41 -435.36,8.03 -617.17,8.03zm-1867.16 -405.78c-290.89,46.33 -500.46,238.61 -595.7,468.53 -94.95,229.25 -56.7,733.02 -56.7,1012.34l0 8537.76c0,280.22 -39,777.57 62.28,1006.38 276.97,625.68 963.01,466.5 1667.39,466.5 432.41,0 2996.88,21.54 3197.24,-9.11 295.42,-45.2 493.48,-237.94 591.7,-468.46 93.57,-219.66 57.61,-737.48 57.61,-1011.14l0 -8537.75c0,-285.93 41.46,-770.15 -61.4,-1007.54 -96.73,-223.24 -317.35,-431.28 -612.99,-461.74 -200.53,-20.67 -2750.39,-3.62 -3187.95,-3.62 -274.71,0 -822.28,-30.26 -1061.48,7.85z"/>
    <path class="fil1" d="M1494.38 -4224.76c239.2,-38.11 786.77,-7.85 1061.48,-7.85 437.56,0 2987.42,-17.05 3187.95,3.62 295.64,30.46 516.26,238.5 612.99,461.74 102.86,237.39 61.4,721.61 61.4,1007.54l0 8537.75c0,273.66 35.96,791.48 -57.61,1011.14 -98.22,230.52 -296.28,423.26 -591.7,468.46 -200.36,30.65 -2764.83,9.11 -3197.24,9.11 -704.38,0 -1390.42,159.18 -1667.39,-466.5 -101.28,-228.81 -62.28,-726.16 -62.28,-1006.38l0 -8537.76c0,-279.32 -38.25,-783.09 56.7,-1012.34 95.24,-229.92 304.81,-422.2 595.7,-468.53zm-755.25 2716.4l15.81 7238.89c0,390.13 -33.63,824.96 83.07,1104.69 95.19,228.19 383.3,495.14 691.02,495.14l4202.13 0c273.53,0 535.61,-221 643.25,-400.46 153.8,-256.44 130.84,-535.68 130.84,-930.1l-0.06 -6098.46c-1.23,-271.93 31.64,-169.54 31.64,-237.55l0 -1203.83c0,-61.16 -33.04,-81.08 -32.18,-205.33 2.95,-426.2 18.77,-1339.97 0.41,-1663.59 -33.29,-586.47 -374.7,-903.09 -995.06,-903.09l-3759.81 0c-617.99,0 -974.97,322.56 -995.62,918.35 -11.05,319.06 -13.83,643.77 -15.62,950.97 -0.92,158.48 22.54,284.2 16.34,459.54 -5.17,146.58 -16.16,303.04 -16.16,474.83z"/>
    <path class="fil2" d="M3288.23 -3841.55c32.04,25.49 5.58,22.57 73.31,22.57 181.81,0 445.27,8.38 617.17,-8.03 -6.21,-74.95 -3.47,-73.52 -80.07,-73.52l-537.1 0c-53.92,0 -72.23,7.89 -73.31,58.98z"/>
    <path class="fil0" d="M4174.98 -3938.59c-52.54,151.97 57.65,231.47 141.17,156.87 75.9,-67.8 27.69,-214.21 -141.17,-156.87z"/>
   </g>
   <ellipse class="fil2 str0" cx="4242.08" cy="-3857.98" rx="102.81" ry="103.2"/>
   <rect class="fil2 str0" x="3275.65" y="-3915.78" width="719.68" height="98.81" rx="29.54" ry="42.26"/>
  </g>
  <path class="fil3" d="M4463.62 3552.59l0 141.25c-0.01,10.22 -0.06,12.52 5.84,18.93 3.9,4.24 11.68,8.38 20.81,8.38l621.91 0 0 126.59 -617.47 0c-10.61,0 -17.48,2.67 -22.9,6.81 -5.92,4.52 -8.26,8.99 -8.2,17.84l0.01 144.58 -150.91 -86.71c-4.24,-2.54 -8.45,-4.6 -12.69,-7.14 -4.29,-2.58 -8.05,-4.7 -12.57,-7.23l-228.07 -130.78c2.82,-3.16 44.79,-26.48 49.74,-29.32l189.75 -108.88c4.51,-2.55 8.36,-4.56 12.62,-7.19 4.19,-2.6 8.47,-4.77 12.65,-7.17l139.48 -79.96zm56.86 508.35l0 -170.56 623.69 0c10.63,0 24.87,-9.11 24.87,-19.99l0 -172.56c0,-9.39 -13.07,-19.32 -30.2,-19.32l-618.36 0 0 -169.22c0,-6.9 -4.32,-10.9 -9.1,-14.5 -5.3,-4.01 -13.39,-6.62 -20.87,-6.02 -12.3,0.98 -18.18,6.15 -27.52,11.38l-197.87 113.45c-59.98,33.63 -120.77,70.06 -180.74,103.65l-86.59 49.66c-16.17,9.78 -16.28,24.1 -4.37,33.02l254.69 146.13c52,29.15 104.52,60.6 156.62,89.75 3.06,1.71 4.94,2.96 7.99,4.67l41.33 23.64c8.01,4.96 26.63,16.81 36.22,16.81l5.33 0c12.62,0 24.88,-10.3 24.88,-19.99z"/>
 </g>
</svg>
