<?xml version="1.0" encoding="UTF-8"?><!DOCTYPE svg PUBLIC "-//W3C//DTD SVG 1.0//EN" "http://www.w3.org/TR/2001/REC-SVG-20010904/DTD/svg10.dtd"><svg viewBox="0 0 512 512" xmlns="http://www.w3.org/2000/svg" xmlns:xlink="http://www.w3.org/1999/xlink"><style>:root>svg{display:none}:root>svg:target{display:block}</style><svg version="1.0" shape-rendering="geometricPrecision" text-rendering="geometricPrecision" image-rendering="optimizeQuality" fill-rule="evenodd" clip-rule="evenodd" viewBox="0 0 30 30" id="alert" xmlns="http://www.w3.org/2000/svg"><defs><style>.afil0,.afil1{fill:#69f;fill-rule:nonzero}.afil0{fill:#e4edf2}</style></defs><g id="aСлой_x0020_1"><g id="aWarning"><path class="afil0" d="M14.26 1.96c-7.24 0-13.13 5.89-13.13 13.13 0 7.23 5.89 13.12 13.13 13.12 7.24 0 13.13-5.89 13.13-13.12 0-7.24-5.89-13.13-13.13-13.13zm0 21.86c-1.55 0-2.81-1.26-2.81-2.81s1.26-2.81 2.81-2.81 2.81 1.26 2.81 2.81-1.26 2.81-2.81 2.81zm2.45-7.96a1.41 1.41 0 01-1.4 1.27h-2.1c-.72 0-1.33-.55-1.4-1.27l-.73-7.46c-.05-.52.12-1.05.48-1.44.35-.39.86-.62 1.39-.62l2.62.01c.53 0 1.04.22 1.39.61.35.39.53.92.48 1.44l-.73 7.46z"/><path class="afil1" d="M15.57 6.35h-2.62a1.869 1.869 0 00-1.87 2.05l.73 7.46c.07.72.67 1.27 1.4 1.27h2.1c.72 0 1.33-.55 1.4-1.27l.73-7.46c.05-.52-.13-1.05-.48-1.44-.36-.39-.86-.61-1.39-.61z"/><circle class="afil1" cx="14.26" cy="21.01" r="2.81"/></g></g></svg><svg aria-hidden="true" viewBox="0 0 14 14" id="gui" xmlns="http://www.w3.org/2000/svg"><path d="M6.828 12.957c-.024-.024-.044-.135-.045-.245 0-.111-.056-.322-.122-.468-.118-.26-.24-.396-1.014-1.137-.32-.306-.459-.528-.964-1.533-.667-1.326-.86-1.645-1.386-2.281-.505-.612-.483-.86.09-1.032.217-.065.305-.058.568.042.369.14.89.64 1.158 1.11.102.18.246.392.32.473.154.17.405.194.462.044.022-.057.04-1.289.04-2.737 0-3.03-.024-2.902.564-2.959.281-.027.354-.01.519.134l.191.165v1.314c0 .891.021 1.285.066 1.225.18-.244.566-.306.883-.142.245.126.325.281.328.632.002.245.013.268.087.17.35-.46 1.218-.137 1.218.452v.225l.172-.135c.203-.16.34-.169.642-.043.397.165.414.258.437 2.364l.021 1.898-.314.604c-.347.669-.472 1.03-.538 1.553l-.043.35H8.52c-.907 0-1.668-.02-1.692-.044zM5.353 4.209c-.407-.367-.593-.798-.593-1.371 0-1.903 2.486-2.544 3.423-.882.18.32.202.417.201.882 0 .44-.029.576-.177.86-.157.3-.585.741-.719.741-.128 0-.03-.321.152-.494.478-.455.623-1.21.337-1.765-.175-.339-.583-.708-.897-.812-.648-.214-1.458.082-1.819.665-.376.608-.296 1.322.212 1.9.134.154.203.294.189.388-.02.141-.035.136-.31-.112zm.135-.874C4.886 1.947 6.87.936 7.616 2.252c.177.313.196.794.043 1.116-.187.395-.245.346-.202-.17.047-.56-.03-.804-.342-1.066-.374-.314-1.083-.192-1.323.229-.047.083-.1.415-.118.738l-.033.589z"/></svg><svg id="li" version="1.1" viewBox="0 0 512 512" xml:space="preserve" xmlns="http://www.w3.org/2000/svg"><style>.cst0{fill:#41ad49}</style><path class="cst0" d="M434.8 49L174.2 309.7l-97.4-97.4L0 289.2l174.1 174.1 22.5-22.4 315.1-315.1L434.8 49z"/></svg></svg>